<svg id="Layer_1" data-name="Layer 1" xmlns="http://www.w3.org/2000/svg" viewBox="0 0 144.35 144.35"><defs><style>.cls-1{fill:#231f20;}.cls-2{fill:#fff;}</style></defs><title>Motherbox_logo_square</title><rect class="cls-1" width="144.35" height="144.35" rx="4.62" ry="4.62"/><path class="cls-2" d="M116.06,107V37.39a12.38,12.38,0,1,0-12.34-3.32L77.55,63.43a12,12,0,0,0-10.75,0L40.63,34.07a12.42,12.42,0,1,0-12.34,3.32V107a12.4,12.4,0,1,0,6.79,0V38L61.72,67.93a12.4,12.4,0,1,0,20.91,0L109.27,38v69A12.4,12.4,0,1,0,116.06,107Z"/></svg>