<svg id="Layer_1" data-name="Layer 1" xmlns="http://www.w3.org/2000/svg" viewBox="0 0 873 144.35"><defs><style>.cls-1{fill:#231f20;}.cls-2{fill:#fff;}</style></defs><title>Motherbox_logo</title><path class="cls-1" d="M159.93,92.78V54.34c0-23.93,15.84-40.59,38.94-40.59,22.77,0,38.94,16.66,38.94,40.59V92.78c0,23.93-16.17,40.43-38.94,40.43C175.77,133.21,159.93,116.71,159.93,92.78Zm68.15,0.33V54c0-19-12.38-30.86-29.21-30.86-16.34,0-29.21,11.39-29.21,30.69V93.11c0,19,12.21,30.69,29.21,30.69C215,123.8,228.08,112.58,228.08,93.11Z"/><path class="cls-1" d="M280.57,131.89V25.13H248.39V15.56h74.25v9.57H290.3V131.89h-9.73Z"/><path class="cls-1" d="M348.1,15.56v53.3H403V15.56h9.74V131.89H403V77.44H348.1v54.45h-9.73V15.56h9.73Z"/><path class="cls-1" d="M444.69,122.49h54.78v9.4H435V15.56h64.52v9.57H444.69V68.69H484v8.74H444.69v45Z"/><path class="cls-1" d="M528.09,94.93v37h-9.74V15.56H552c23.26,0,38.94,13.7,38.94,38.12V58c0,20.62-12.38,32.67-30.36,35.31l30,38.61H578.91l-28.21-37H528.09Zm0-9.4h23.1c17.33,0,30-8.91,30-27.56V53.35c0-19.64-12.54-28.22-30-28.22h-23.1V85.52Z"/><path class="cls-1" d="M609.83,15.56h34c23.1,0,37.79,7.59,37.79,29.37v1.65c0,14.85-6.77,22.94-18.65,26.57C675.51,76.94,682.6,85,682.6,99.55v1.32c0,22.28-14.52,31-37.62,31H609.83V15.56ZM619.57,69H648c15,0,23.92-6.6,23.92-21.29v-2c0-16.17-11.22-20.63-28.21-20.63H619.57V69Zm27.72,8.09H619.57v45.38h25.25c17,0,28.21-5.45,28.21-22.44V98.23C673,83.71,662.47,77.11,647.29,77.11Z"/><path class="cls-1" d="M700.49,92.78V54.34c0-23.93,15.84-40.59,38.94-40.59,22.77,0,38.94,16.66,38.94,40.59V92.78c0,23.93-16.17,40.43-38.94,40.43C716.33,133.21,700.49,116.71,700.49,92.78Zm68.15,0.33V54c0-19-12.38-30.86-29.21-30.86-16.33,0-29.21,11.39-29.21,30.69V93.11c0,19,12.21,30.69,29.21,30.69C755.6,123.8,768.64,112.58,768.64,93.11Z"/><path class="cls-1" d="M862.44,131.89L830.1,80.57l-32.17,51.32H787.37l37.29-59.4L788.85,15.56h10.72L830.1,64.4l30.69-48.84h10.72c-12,19-24.09,38-36,56.93L873,131.89H862.44Z"/><rect class="cls-1" width="144.35" height="144.35" rx="4.62" ry="4.62"/><path class="cls-2" d="M116.06,107V37.39a12.38,12.38,0,1,0-12.34-3.32L77.55,63.43a12,12,0,0,0-10.75,0L40.63,34.07a12.42,12.42,0,1,0-12.34,3.32V107a12.4,12.4,0,1,0,6.79,0V38L61.72,67.93a12.4,12.4,0,1,0,20.91,0L109.27,38v69A12.4,12.4,0,1,0,116.06,107Z"/></svg>